<mxfile host="app.diagrams.net" modified="2022-06-30T22:13:26.535Z" agent="5.0 (Macintosh; Intel Mac OS X 10_15_7) AppleWebKit/605.1.15 (KHTML, like Gecko) Version/15.5 Safari/605.1.15" etag="Tn9P1VI4_h_oo4tHti76" version="20.0.4" type="github">
  <diagram id="78M-czVSMcAJBp8UYP3g" name="Page-1">
    <mxGraphModel dx="946" dy="645" grid="1" gridSize="10" guides="1" tooltips="1" connect="1" arrows="1" fold="1" page="1" pageScale="1" pageWidth="850" pageHeight="1100" math="0" shadow="0">
      <root>
        <mxCell id="0" />
        <mxCell id="1" parent="0" />
        <mxCell id="B5-niVi6mwSo_ZXKOOw9-1" value="&lt;div style=&quot;text-align: justify; font-size: 21px;&quot;&gt;&lt;br&gt;&lt;/div&gt;" style="ellipse;shape=cloud;whiteSpace=wrap;html=1;fillColor=#e1d5e7;strokeColor=#9673a6;strokeWidth=8;opacity=50;" vertex="1" parent="1">
          <mxGeometry x="228" y="70" width="395" height="250" as="geometry" />
        </mxCell>
        <mxCell id="B5-niVi6mwSo_ZXKOOw9-2" value="&lt;font face=&quot;Tahoma&quot; style=&quot;font-size: 17px;&quot;&gt;Join team in regular sprint workflow.&lt;/font&gt;" style="rounded=0;whiteSpace=wrap;html=1;labelBackgroundColor=#FFF2CC;fontSize=20;strokeWidth=8;opacity=50;fillColor=#b0e3e6;strokeColor=#0e8088;" vertex="1" parent="1">
          <mxGeometry x="200" y="410" width="220" height="110" as="geometry" />
        </mxCell>
        <mxCell id="B5-niVi6mwSo_ZXKOOw9-3" value="&lt;span style=&quot;font-size: 17px;&quot;&gt;&lt;font face=&quot;Tahoma&quot;&gt;Integrate SPLAT (or other game project) into the learning application.&lt;/font&gt;&lt;/span&gt;" style="rounded=0;whiteSpace=wrap;html=1;labelBackgroundColor=#FFF2CC;fontSize=20;strokeWidth=8;opacity=50;fillColor=#d5e8d4;strokeColor=#82b366;gradientColor=#97d077;" vertex="1" parent="1">
          <mxGeometry x="460" y="410" width="220" height="110" as="geometry" />
        </mxCell>
        <mxCell id="B5-niVi6mwSo_ZXKOOw9-4" value="&lt;font face=&quot;Tahoma&quot; style=&quot;font-size: 17px;&quot;&gt;Contribute code to add features to the portal frontend.&lt;/font&gt;" style="rounded=0;whiteSpace=wrap;html=1;labelBackgroundColor=#FFF2CC;fontSize=20;strokeWidth=8;opacity=50;fillColor=#fad9d5;strokeColor=#ae4132;" vertex="1" parent="1">
          <mxGeometry x="200" y="540" width="220" height="110" as="geometry" />
        </mxCell>
        <mxCell id="B5-niVi6mwSo_ZXKOOw9-5" value="&lt;font face=&quot;Tahoma&quot; style=&quot;font-size: 17px;&quot;&gt;Learn SQL database structure and translate to ER diagram.&lt;/font&gt;" style="rounded=0;whiteSpace=wrap;html=1;labelBackgroundColor=#FFF2CC;fontSize=20;strokeWidth=8;opacity=50;fillColor=#ffcd28;strokeColor=#d79b00;gradientColor=#ffa500;" vertex="1" parent="1">
          <mxGeometry x="460" y="540" width="220" height="110" as="geometry" />
        </mxCell>
        <mxCell id="B5-niVi6mwSo_ZXKOOw9-9" value="&lt;span style=&quot;text-align: justify;&quot;&gt;Reliably handle impromptu dev&amp;nbsp;&lt;/span&gt;&lt;span style=&quot;text-align: justify;&quot;&gt;assignments in&amp;nbsp;&lt;/span&gt;&lt;span style=&quot;text-align: justify;&quot;&gt;Unity Game Engine,&amp;nbsp;&lt;/span&gt;&lt;span style=&quot;text-align: justify;&quot;&gt;Angular.JS,&amp;nbsp;&lt;/span&gt;&lt;span style=&quot;text-align: justify;&quot;&gt;and SQL Databas&lt;span style=&quot;background-color: rgb(166, 128, 184);&quot;&gt;e&lt;/span&gt;&lt;/span&gt;&lt;span style=&quot;text-align: justify; background-color: rgb(166, 128, 184);&quot;&gt;.&lt;/span&gt;" style="text;html=1;strokeColor=none;fillColor=none;align=center;verticalAlign=middle;whiteSpace=wrap;rounded=0;labelBackgroundColor=#A680B8;fontFamily=Tahoma;fontSize=21;opacity=50;strokeWidth=43;" vertex="1" parent="1">
          <mxGeometry x="281.13" y="80" width="288.75" height="220" as="geometry" />
        </mxCell>
        <mxCell id="B5-niVi6mwSo_ZXKOOw9-13" value="&lt;b style=&quot;background-color: rgb(126, 166, 224);&quot;&gt;Objective&lt;/b&gt;" style="shape=hexagon;perimeter=hexagonPerimeter2;whiteSpace=wrap;html=1;fixedSize=1;labelBackgroundColor=#A680B8;fontFamily=Tahoma;fontSize=21;strokeWidth=43;fillColor=#dae8fc;opacity=50;strokeColor=#6c8ebf;" vertex="1" parent="1">
          <mxGeometry x="379" y="30" width="92" height="30" as="geometry" />
        </mxCell>
        <mxCell id="B5-niVi6mwSo_ZXKOOw9-15" value="&lt;b style=&quot;background-color: rgb(255, 206, 159);&quot;&gt;Key Results&lt;/b&gt;" style="shape=hexagon;perimeter=hexagonPerimeter2;whiteSpace=wrap;html=1;fixedSize=1;labelBackgroundColor=#A680B8;fontFamily=Tahoma;fontSize=21;strokeWidth=43;fillColor=#ffe6cc;opacity=50;strokeColor=#d79b00;" vertex="1" parent="1">
          <mxGeometry x="355.25" y="340" width="140.5" height="30" as="geometry" />
        </mxCell>
      </root>
    </mxGraphModel>
  </diagram>
</mxfile>
